<?xml version="1.0" encoding="utf-8"?>
<!-- Generator: Adobe Illustrator 23.0.5, SVG Export Plug-In . SVG Version: 6.00 Build 0)  -->
<svg version="1.1" id="Capa_1" xmlns="http://www.w3.org/2000/svg" xmlns:xlink="http://www.w3.org/1999/xlink" x="0px" y="0px"
	 viewBox="0 0 150.7 47.1" style="enable-background:new 0 0 150.7 47.1;" xml:space="preserve">
<style type="text/css">
	.st0{fill:#C83B8D;}
	.st1{fill:#FFFFFF;}
</style>
<title>next-btn-hover</title>
<g>
	<g id="_1200">
		<path class="st0" d="M10.2,0h113.3c2.3,0,4.5,0.8,6.3,2.2l17,13.1c4.5,3.5,5.3,9.9,1.8,14.3c-0.5,0.6-1.1,1.2-1.7,1.7l-17,13.5
			c-1.8,1.4-4,2.2-6.4,2.2H10.2C4.6,47.1,0,42.5,0,36.9V10.2C0,4.6,4.6,0,10.2,0z"/>
	</g>
</g>
<g>
	<path class="st1" d="M38.9,30.5c-0.9,0.4-2.6,0.9-4.8,0.9c-5.1,0-9-3.2-9-9.2c0-5.7,3.9-9.5,9.5-9.5c2.3,0,3.7,0.5,4.3,0.8
		l-0.6,1.9c-0.9-0.4-2.2-0.8-3.7-0.8c-4.3,0-7.1,2.7-7.1,7.5c0,4.4,2.6,7.3,7,7.3c1.4,0,2.9-0.3,3.8-0.8L38.9,30.5z"/>
	<path class="st1" d="M48.8,31.1l-0.2-1.6h-0.1c-0.7,1-2.1,1.9-4,1.9c-2.6,0-4-1.9-4-3.7c0-3.2,2.8-4.9,7.8-4.8v-0.3
		c0-1.1-0.3-3-3-3c-1.2,0-2.5,0.4-3.4,1l-0.5-1.6c1.1-0.7,2.6-1.2,4.3-1.2c4,0,5,2.7,5,5.3v4.9c0,1.1,0.1,2.2,0.2,3.1H48.8z
		 M48.5,24.4c-2.6-0.1-5.5,0.4-5.5,2.9c0,1.5,1,2.3,2.2,2.3c1.7,0,2.8-1.1,3.2-2.2c0.1-0.2,0.1-0.5,0.1-0.8V24.4z"/>
	<path class="st1" d="M54.6,11.9h2.4v19.1h-2.4V11.9z"/>
	<path class="st1" d="M70.2,30.6c-0.6,0.3-2,0.8-3.7,0.8c-3.9,0-6.5-2.7-6.5-6.7c0-4,2.7-6.9,7-6.9c1.4,0,2.6,0.3,3.3,0.7l-0.5,1.8
		c-0.6-0.3-1.5-0.6-2.7-0.6c-3,0-4.6,2.2-4.6,4.9c0,3,1.9,4.9,4.5,4.9c1.3,0,2.2-0.3,2.9-0.6L70.2,30.6z"/>
	<path class="st1" d="M83.9,27.5c0,1.3,0,2.5,0.1,3.6h-2.1l-0.1-2.1h-0.1c-0.6,1-2,2.4-4.3,2.4c-2,0-4.5-1.1-4.5-5.7V18h2.4v7.2
		c0,2.5,0.8,4.1,2.9,4.1c1.6,0,2.7-1.1,3.1-2.2c0.1-0.3,0.2-0.8,0.2-1.2v-8h2.4V27.5z"/>
	<path class="st1" d="M87.9,11.9h2.4v19.1h-2.4V11.9z"/>
	<path class="st1" d="M101.5,31.1l-0.2-1.6h-0.1c-0.7,1-2.1,1.9-4,1.9c-2.6,0-4-1.9-4-3.7c0-3.2,2.8-4.9,7.8-4.8v-0.3
		c0-1.1-0.3-3-3-3c-1.2,0-2.5,0.4-3.4,1l-0.5-1.6c1.1-0.7,2.6-1.2,4.3-1.2c4,0,5,2.7,5,5.3v4.9c0,1.1,0.1,2.2,0.2,3.1H101.5z
		 M101.1,24.4c-2.6-0.1-5.5,0.4-5.5,2.9c0,1.5,1,2.3,2.2,2.3c1.7,0,2.8-1.1,3.2-2.2c0.1-0.2,0.1-0.5,0.1-0.8V24.4z"/>
	<path class="st1" d="M107.2,22.1c0-1.5,0-2.9-0.1-4.1h2.1l0.1,2.6h0.1c0.6-1.8,2-2.9,3.6-2.9c0.3,0,0.5,0,0.7,0.1V20
		c-0.2-0.1-0.5-0.1-0.8-0.1c-1.7,0-2.9,1.3-3.2,3c-0.1,0.3-0.1,0.7-0.1,1.1v7h-2.3V22.1z"/>
</g>
</svg>
